# xmcd
#
# Track frame offsets:
#	150
#	18220
#	43330
#	57380
#	79517
#	100017
#	118949
#	137712
#	157794
#	181014
#	197142
#
# Disc length: 2844 seconds
#
# Revision: 0
# Processed by: cddbd v1.5.2PL0 Copyright (c) Steve Scherf et al.
# Submitted via: audiograbber 1.83.01
#
DISCID=870b1a0b
DTITLE=Deanna Johnston - Deanna Johnston
DYEAR=1996
DGENRE=Indie
TTITLE0=The Other Side
TTITLE1=Everything For You
TTITLE2=Sex Ed
TTITLE3=Just Another Day
TTITLE4=Oh Daddy
TTITLE5=Darken My Skin
TTITLE6=Green Banana's
TTITLE7=Going Insane
TTITLE8=Dirty Hands
TTITLE9=Money
TTITLE10=Feel That Emotion
EXTD=
EXTT0=
EXTT1=
EXTT2=
EXTT3=
EXTT4=
EXTT5=
EXTT6=
EXTT7=
EXTT8=
EXTT9=
EXTT10=
PLAYORDER=
